<?xml version="1.0" standalone="no"?>
<svg version="1.1" xmlns="http://www.w3.org/2000/svg"
 width="195.000000pt" height="180.000000pt" viewBox="0 0 1950 1800"
 preserveAspectRatio="xMidYMid meet">
  <defs>
    <linearGradient id="logoGradient" x1="0%" y1="0%" x2="100%" y2="100%">
      <stop offset="0%" style="stop-color:hsl(180, 80%, 70%);stop-opacity:1" />
      <stop offset="100%" style="stop-color:hsl(320, 80%, 70%);stop-opacity:1" />
    </linearGradient>
  </defs>
<g transform="translate(0.000000,1800.000000) scale(0.100000,-0.100000)"
fill="url(#logoGradient)" stroke="none">
<path d="M0 900 l0 -900 975 0 975 0 0 900 0 900 -975 0 -975 0 0 -900z m1094
461 c-2 -3 -33 23 -67 57 l-63 62 -64 -65 -64 -65 272 0 272 0 0 -134 0 -134
78 -75 77 -76 -45 -46 c-47 -49 -100 -91 -100 -80 0 4 26 33 57 66 l57 60 -62
62 -62 62 0 -268 0 -267 -272 0 -273 0 -79 78 c-48 46 -24 17 59 -73 l139
-150 -157 155 c-86 85 -157 150 -157 145 0 -5 33 -42 72 -82 l72 -73 -122 0
-122 0 0 131 0 132 -77 73 -78 72 78 79 77 78 0 133 0 132 136 0 137 0 76 75
76 74 67 -66 c37 -37 65 -69 62 -72z m-4 -864 c0 -1 -28 -29 -62 -62 l-63 -60
60 63 c55 58 65 67 65 59z"/>
<path d="M580 1090 c0 -19 7 -20 170 -20 163 0 170 1 170 20 0 19 -7 20 -170
20 -163 0 -170 -1 -170 -20z"/>
<path d="M960 930 l0 -180 25 0 25 0 -7 148 c-7 170 -11 168 83 47 32 -41 61
-75 65 -75 3 0 37 39 75 87 l69 87 3 -147 c2 -139 4 -147 22 -147 19 0 20 7
20 180 l0 180 -24 0 c-19 0 -41 -20 -92 -85 -37 -47 -70 -85 -73 -85 -3 1 -35
39 -71 85 -53 69 -70 84 -92 85 l-28 0 0 -180z"/>
<path d="M475 990 l-60 -60 63 -63 62 -62 0 123 c0 67 -1 122 -3 122 -1 0 -29
-27 -62 -60z"/>
<path d="M580 940 c0 -19 7 -20 170 -20 163 0 170 1 170 20 0 19 -7 20 -170
20 -163 0 -170 -1 -170 -20z"/>
<path d="M580 770 c0 -19 7 -20 170 -20 163 0 170 1 170 20 0 19 -7 20 -170
20 -163 0 -170 -1 -170 -20z"/>
</g>
</svg>
