<svg width="48" height="48" viewBox="0 0 48 48" fill="none" xmlns="http://www.w3.org/2000/svg">
<path d="M42.8123 10.3397C44.4375 11.2428 45.4286 12.96 45.4286 14.8103V33.1897C45.4286 35.04 44.4375 36.7572 42.8123 37.6603L26.8123 46.8501C25.1872 47.7531 23.1878 47.7531 21.5627 46.8501L5.5627 37.6603C3.93754 36.7572 2.94643 35.04 2.94643 33.1897V14.8103C2.94643 12.96 3.93754 11.2428 5.5627 10.3397L21.5627 1.14992C23.1878 0.246896 25.1872 0.246896 26.8123 1.14992L42.8123 10.3397Z" fill="url(#paint0_linear_logo)"/>
<path d="M15.5 15V33H18V26H24V33H27V15H24V23H18V15H15Z" fill="white"/>
<path d="M30 33H33L33 15H30V33Z" fill="white"/>
<defs>
<linearGradient id="paint0_linear_logo" x1="-1.90735e-06" y1="1.42857" x2="49.7143" y2="4.28571" gradientUnits="userSpaceOnUse">
<stop stop-color="#06B6D4"/>
<stop offset="1" stop-color="#EC4899"/>
</linearGradient>
</defs>
</svg>